<svg xmlns="http://www.w3.org/2000/svg" viewBox="0 0 24 24" width="24" height="24">
  {/* Rows */}
  <rect x="8" y="2" width="8" height="2" fill="#FFD700" />
  <rect x="6" y="4" width="12" height="2" fill="#FFD700" />
  <rect x="4" y="6" width="16" height="2" fill="#FFD700" />
  <rect x="2" y="8" width="20" height="2" fill="#FFD700" />
  <rect x="2" y="10" width="20" height="2" fill="#FFD700" />
  <rect x="2" y="12" width="20" height="2" fill="#FFD700" />
  <rect x="2" y="14" width="20" height="2" fill="#FFD700" />
  <rect x="2" y="16" width="20" height="2" fill="#FFD700" />
  <rect x="2" y="18" width="20" height="2" fill="#FFD700" />
  <rect x="4" y="20" width="16" height="2" fill="#FFD700" />
  {/* Body */}
  <rect x="6" y="8" width="12" height="12" fill="#FFD700" />
  {/* Ears */}
  <path d="M4 6h4l4-4h4v2h-4l-4 4h-4zm16 0h-4l-4-4h-4v2h4l4 4h4z" fill="#FFD700" />
  {/* Legs */}
  <rect x="4" y="20" width="4" height="2" fill="#FFD700" />
  <rect x="16" y="20" width="4" height="2" fill="#FFD700" />
</svg>
